<?xml version="1.0" encoding="UTF-8"?>
<svg xmlns="http://www.w3.org/2000/svg" viewBox="0 0 639.42 386.65">
  <defs>
    <style>
      .cls-1, .cls-2, .cls-3, .cls-4, .cls-5, .cls-6, .cls-7 {
        fill: none;
        stroke-linecap: round;
      }

      .cls-1, .cls-3, .cls-4, .cls-5, .cls-6, .cls-7 {
        stroke-miterlimit: 10;
      }

      .cls-1, .cls-5 {
        stroke: #ff765f;
      }

      .cls-1, .cls-6, .cls-7 {
        stroke-width: .5px;
      }

      .cls-8 {
        fill: #f4ddc9;
        opacity: .46;
      }

      .cls-8, .cls-9, .cls-10, .cls-11, .cls-12, .cls-13, .cls-14, .cls-15, .cls-16, .cls-17, .cls-18, .cls-19, .cls-20, .cls-21, .cls-22, .cls-23, .cls-24 {
        stroke-width: 0px;
      }

      .cls-25 {
        isolation: isolate;
      }

      .cls-9 {
        fill: #e8e3dd;
      }

      .cls-10 {
        fill: #7c4a19;
      }

      .cls-2 {
        stroke-linejoin: round;
      }

      .cls-2, .cls-6 {
        stroke: #d8d7d6;
      }

      .cls-3 {
        mix-blend-mode: soft-light;
        stroke-dasharray: 0 2;
      }

      .cls-3, .cls-4 {
        stroke: #fce6e6;
      }

      .cls-3, .cls-4, .cls-5 {
        stroke-width: .25px;
      }

      .cls-11 {
        fill: #685e5b;
      }

      .cls-12 {
        fill: #f7dcb0;
      }

      .cls-12, .cls-15, .cls-24 {
        mix-blend-mode: multiply;
      }

      .cls-13 {
        fill: #d8cdc0;
      }

      .cls-14 {
        fill: #564c49;
      }

      .cls-15 {
        fill: #f9b8af;
      }

      .cls-16 {
        fill: #ea8c00;
      }

      .cls-17 {
        fill: #514e4d;
      }

      .cls-18 {
        fill: #b5742c;
      }

      .cls-19 {
        fill: #aaa9a9;
      }

      .cls-20 {
        fill: #c9c5c5;
      }

      .cls-5 {
        opacity: .54;
      }

      .cls-21 {
        fill: #332a24;
      }

      .cls-22 {
        fill: #fcb9a7;
      }

      .cls-23 {
        fill: #ddb566;
      }

      .cls-24 {
        fill: #e8c591;
      }

      .cls-7 {
        stroke: #826649;
      }
    </style>
  </defs>
  <g class="cls-25">
    <g id="OBJECTS">
      <g id="PEOPLE">
        <g>
          <path class="cls-18" d="M368.57,150.14s30.69,1.27,7.6-19.43"/>
          <path class="cls-18" d="M337.34,73.35s7.16,3.16,10.11,6.26c2.96,3.1,13.94,37.78,13.94,37.78l-26.65,2.13"/>
          <path class="cls-13" d="M337.44,17.92c-1.68-.9-3.67-.14-4.48.25-.04,0-.07,0-.07,0-2.88-6.83-7.28-9.29-7.28-9.29l7.7,23.84s4.15-11.1,3.24-12.72c-.56-.98-1.78-1.44-2.66-1.66.89-.31,2.21-.57,3.31.02.12.07.27.02.34-.1.06-.12.02-.27-.1-.34Z"/>
          <path class="cls-23" d="M352.68,371.03s5.62,3.88,15.24,4.25c9.62.37,6.87,5.12,6.87,5.12l-34.61,5.62s-1.12-7.62-.62-13.37"/>
          <path class="cls-23" d="M279.12,374.22s-3.04,7.29-6.09,8.49-1.29,3.32-1.29,3.32h25.65s-.83-6.92-2.58-11.81"/>
          <path class="cls-11" d="M342.64,187.82s8.79,99.67,14.78,183.97l-20.33,3.03h0c-3.72-15.26-24.4-135.42-30.88-182.3"/>
          <path class="cls-11" d="M343.31,189.73s-21.58,8.8-33.03,12.49c0,0-2.09,95.1-12.38,173.57h-21.44c-.6-20.55-4.23-174.93-1.86-190.18"/>
          <polyline class="cls-2" points="318.13 191.53 320.1 207.02 313.81 209.84"/>
          <line class="cls-6" x1="310.62" y1="191.91" x2="312.96" y2="205.55"/>
          <path class="cls-22" d="M300.79,37.95s-4.22-5.67-7.6-2.98c-3.93,3.13,1.72,12.08,9.05,6.88"/>
          <path class="cls-1" d="M294.92,39.54s2.42-1.43,5.21,0"/>
          <path class="cls-18" d="M300.78,63.78s-22.25,6.54-27.77,9.57c-5.52,3.03,1.57,48.23,1.57,48.23,0,0-3.07,65.33-1.2,68.38,2.81,4.57,66.42,2.44,69.92-.24,1.96-.55-4.41-64.38.17-77.09.26-16.66-1.36-35.54-2.46-36.79-2.95-3.33-18.54-8.67-23.63-9.8"/>
          <path class="cls-18" d="M316.55,91.66c8.01-.74,6-15.62,4.57-22.75-.14-.69-.66-1.24-1.33-1.44-.9-.25-1.68-.46-2.31-.6-.06-.01-.11-.02-.17-.03l-16.12-2.2c-.27-.04-.53-.02-.78.06-.54.16-1.62.48-3.05.92-1.09.33-1.65,1.55-1.17,2.59,3.27,7.13,12.01,24.24,20.37,23.46Z"/>
          <path class="cls-22" d="M300.7,42.66s-.33,15.09-1.52,23.19c0,0,9.04,18.31,15.58,18.4,6.54.09,3.94-18.13,3.94-18.13l1.56-8.1-19.56-15.36Z"/>
          <path class="cls-15" d="M300.95,42.72c3.89,8.39,10.47,17.39,18.51,19.58l1.09-5.64-19.56-15.36s-.01.52-.04,1.43Z"/>
          <path class="cls-22" d="M333.32,23.25c2.01,12.44,2.41,33.59-8.04,36.67-15.7,4.64-27.99-19.67-29.74-30.42-1.75-10.75,5.54-20.89,16.29-22.65,10.75-1.75,19.59,4.67,21.49,16.39Z"/>
          <path class="cls-4" d="M303.9,120.89s15.1-5.16,37.01-7"/>
          <path class="cls-4" d="M296.8,118.68s20.68-3.87,44.07-4.79"/>
          <path class="cls-21" d="M320.33,36.72c0,.69-.48,1.26-1.06,1.26s-1.06-.56-1.06-1.26.48-1.26,1.06-1.26,1.06.56,1.06,1.26Z"/>
          <path class="cls-21" d="M332.92,35.95c0,.69-.48,1.26-1.06,1.26s-1.06-.56-1.06-1.26.48-1.26,1.06-1.26,1.06.56,1.06,1.26Z"/>
          <path class="cls-9" d="M315.75,28.34s1.93-2.58,3.82-2.26c0,0-2.85-4.14-3.82,2.26Z"/>
          <path class="cls-9" d="M329.57,24.34s1.36-.52,2.76.65c0,0-1.29-4.2-2.76-.65Z"/>
          <path class="cls-16" d="M303.47,165.24c.13.29.27.32.43.16-.14-.05-.28-.11-.43-.16Z"/>
          <path class="cls-18" d="M319.16,65.83l.3-1.57c-1.62.82-3.69,1.15-5.67,1.03-8.02-.47-14.44-5.77-14.44-5.77l-.17,1.86c-.15,1.5-.31,2.91-.5,4.17,0,0,9.48,19.21,16.34,19.31,6.86.1,4.13-19.02,4.13-19.02Z"/>
          <path class="cls-12" d="M313.58,65.6c-7.64-.44-13.76-5.5-13.76-5.5l-.16,1.77c-.03.28-.06.55-.08.82,1.63,1.02,5.92,3.43,10.88,3.97,4.38.48,7.06-.28,8.3-.79l.24-1.25c-1.55.79-3.52,1.09-5.41.98Z"/>
          <path class="cls-10" d="M298.74,58.95l-.35,2.7c0,.08.02.15.09.19.78.52,5.84,3.72,11.82,4.36,5.81.62,8.72-.82,9.29-1.14.06-.04.1-.1.1-.18v-1.63c0-.14-.14-.24-.27-.2-.84.24-3.65.88-8.8.39-5.71-.53-10.35-3.76-11.53-4.64-.13-.1-.32-.02-.34.14Z"/>
          <path class="cls-10" d="M271.87,185.72c-.5-.06-.91.36-.85.85.18,1.59.56,4.62.87,5.12.42.69,19.65,2.21,39.03,1.94,19.38-.28,33.08-2.49,33.91-3.18.61-.51.32-2.89.13-4.11-.07-.41-.44-.69-.85-.64-3.19.38-16.58,1.88-33.33,2.12-16.79.24-34.63-1.62-38.91-2.1Z"/>
          <path class="cls-24" d="M273.63,115.47c.94,7.88.96,6.11.96,6.11,0,0-.28,5.87-.61,14.16,28.49-3.52,58.65-5,67.82-5.39.07-7.95.52-14.49,1.68-17.72.05-3.08.03-6.23-.03-9.33-16.24,5.53-69.82,12.16-69.82,12.16Z"/>
          <path class="cls-22" d="M289.38,194.64s7.18,3.45,8.38,5.35c1.2,1.9-8.38,0-8.38,0,0,0-9.15,4.79-11.33,5.56,0,0-.84-3.94-.99-6.34"/>
          <path class="cls-18" d="M273.01,73.35s-5.38,1.07-9.94,7.3c-5.32,7.26-11.49,49.28-11.77,55.09s9.05,44.84,25.43,65.05l14.44-5.8s-17.49-52.88-17.19-59.25c.3-6.37,5.18-28.4,5.18-34.61s1.17-19.58-6.14-27.79Z"/>
          <path class="cls-4" d="M274.3,75.12s4.85,2.56,4.85,19.82"/>
          <polygon class="cls-12" points="275.78 144.85 288.61 187.17 290.24 187.17 275.78 144.85"/>
          <path class="cls-24" d="M253.08,146.48c.94-1.01,1.78-2.63,1.2-4.99-1.1-4.5-.31-9.43-.03-13.94.17-2.65-.49-4.95-1.07-6.4-1.09,7.05-1.8,12.71-1.89,14.59-.07,1.55.54,5.46,1.78,10.73Z"/>
          <path class="cls-14" d="M284.52,221.51s6.19-1.03,9.48-9.67c0,0-1.78,17.46-9.48,9.67Z"/>
          <polygon class="cls-14" points="309.84 217.04 322.04 211.24 310.4 220.62 309.84 217.04"/>
          <line class="cls-6" x1="314.65" y1="222.22" x2="339.43" y2="369.2"/>
          <line class="cls-6" x1="278.9" y1="228.98" x2="278.9" y2="370.04"/>
          <path class="cls-6" d="M275.78,206.46s6.45-2.43,13.61-6.47"/>
          <path class="cls-6" d="M336.33,196.13s2.44,5.95,8.17,4.66"/>
          <polygon class="cls-21" points="271.24 385.7 297.62 385.7 297.83 386.55 271.54 386.55 271.24 385.7"/>
          <polygon class="cls-21" points="339.68 385.85 339.96 386.65 375.15 380.92 375.4 379.9 339.68 385.85"/>
          <path class="cls-3" d="M274.81,137.08s40.69-4.53,65.46-4.95"/>
          <path class="cls-3" d="M279.15,113.26s39.3-5.07,62.53-11.68"/>
          <path class="cls-1" d="M321.83,42.92s1.45,2.44,4.27.99"/>
          <path class="cls-1" d="M323.97,54.27s2.09-1.97,4.27-1.69"/>
          <path class="cls-5" d="M327.19,37.44s3.32,4.23,3.66,10.21"/>
          <path class="cls-5" d="M322.44,37.93s-6.03,3.6-6.24,11.48"/>
          <path class="cls-8" d="M324.58,31.13c.48,6.23-2.42,9.02-6.24,9.32s-7.12-2.02-7.6-8.25,2.53-7.61,6.35-7.91c3.82-.3,7.01.61,7.49,6.84Z"/>
          <path class="cls-8" d="M338.54,29.66c.48,6.23-1.85,8.98-4.97,9.22-3.12.24-5.85-2.12-6.33-8.35s1.96-7.57,5.08-7.81,5.74.71,6.22,6.94Z"/>
          <path class="cls-7" d="M324.58,31.13c.48,6.23-2.42,9.02-6.24,9.32s-7.12-2.02-7.6-8.25,2.53-7.61,6.35-7.91c3.82-.3,7.01.61,7.49,6.84Z"/>
          <path class="cls-7" d="M338.54,29.66c.48,6.23-1.85,8.98-4.97,9.22-3.12.24-5.85-2.12-6.33-8.35s1.96-7.57,5.08-7.81,5.74.71,6.22,6.94Z"/>
          <path class="cls-22" d="M325.19,24.99l4.25,10.11c.38.89-.16,1.91-1.11,2.11l-3.5.72"/>
          <path class="cls-1" d="M325.19,24.99l4.25,10.11c.38.89-.16,1.91-1.11,2.11l-3.5.72"/>
          <path class="cls-7" d="M323.97,27.97s1.94-.63,3.28-.3"/>
          <path class="cls-5" d="M315.75,19.64s10.3-2.89,13.28-2.11"/>
          <path class="cls-5" d="M319.02,16.9s4.89-2.46,7.8-1.48"/>
          <path class="cls-24" d="M320.26,163l1.67,1.22,20.85-.77c-.94-19.35-1.92-43.51.71-50.81.07-4.65,0-9.47-.17-14.04l-16.67-1.39-6.38,65.79Z"/>
          <path class="cls-9" d="M321.41,0c-4.93.21-5.67,5.07-5.67,5.07,0,0-.6-2.46-2.01-2.46s1.12,2.89,1.12,2.89c0,0-9.99.14-15.55,7.67,0,0-.98-1.48-1.55-1.27-.37.14.2.98.64,1.53-1.52-.54-3.78-1.03-6.01-.37-.13.04-.21.18-.17.31.04.13.18.21.31.17,2.16-.65,4.39-.11,5.85.42-1.63.12-7.43.69-8.15,2.93-.84,2.6,5.65,17.42,5.65,17.42l1.19.41s-.15,1.63.69,2.42c0,0,2.23-6.53,3.19-17.37,0,0,10.09-3.13,0-7.3,0,0,4.34-5.19,12.92-5.91,0,0-1.41,1.88-.42,2.16.99.28,3.66-.49,3.66-.49,0,0,.01.02.03.04.21,1.41,1.02,3.94,4.14,4.95.03,0,.05.01.08.01.11,0,.2-.07.24-.17.04-.13-.03-.27-.16-.31-2.37-.77-3.28-2.45-3.64-3.74,1.16,1.2,3.7,3.37,6.83,3.17,4.31-.28,1.71-12.39-3.22-12.18Z"/>
          <path class="cls-13" d="M319.5.38c-3.2,1.17-3.75,4.69-3.75,4.69,0,0-.6-2.46-2.01-2.46s1.12,2.89,1.12,2.89c0,0-9.99.14-15.55,7.67,0,0-.98-1.48-1.55-1.27-.37.14.2.98.64,1.53-1.52-.54-3.78-1.03-6.01-.37-.13.04-.21.18-.17.31.04.13.18.21.31.17,2.16-.65,4.39-.11,5.85.42-1.63.12-7.43.69-8.15,2.93-.84,2.6,5.65,17.42,5.65,17.42l1.19.41s-.15,1.63.69,2.42c0,0,1.32-3.88,2.37-10.6-6.78,2.12-8.66-7.66-8.38-9.66.28-1.99,7.6-2.75,7.6-2.75,5.82-9.34,17.13-8.17,17.13-8.17.21-3.93,2.59-5.38,3.01-5.61Z"/>
          <g>
            <polygon class="cls-17" points="334.74 91.99 327.21 156.56 372.84 154.87 383.73 95.05 334.74 91.99"/>
            <polygon class="cls-20" points="327.21 156.56 325.54 155.34 331.92 89.55 334.74 91.99 327.21 156.56"/>
            <polygon class="cls-19" points="383.73 95.05 379.13 93.49 331.92 89.55 334.74 91.99 383.73 95.05"/>
            <path class="cls-19" d="M379.92,99.49c-.12.91-.65,1.58-1.19,1.51-.54-.07-.88-.86-.76-1.77.12-.91.65-1.58,1.19-1.51.54.07.88.86.76,1.77Z"/>
            <path class="cls-19" d="M379.24,104.73c-.12.91-.65,1.58-1.19,1.51-.54-.07-.88-.86-.76-1.77.12-.91.65-1.58,1.19-1.51.54.07.88.86.76,1.77Z"/>
            <polygon class="cls-20" points="335.44 90.63 336.1 91.19 344.31 91.75 342.81 91.19 335.44 90.63"/>
            <polygon class="cls-19" points="331.92 99.64 330.14 118.17 330.61 118.55 333 99.83 331.92 99.64"/>
          </g>
          <path class="cls-22" d="M379.68,135.11s-8.98-11.3-10.99-10.04c-2.01,1.26,7.41,10.04,7.41,10.04,0,0-13.68-3.58-13.75-1.19-.06,2.39,13.18,4.27,13.18,4.27,0,0-13.06,1.63-13.18,4.27-.13,2.64,12.49-1,12.49-1,0,0-8.1,4.08-7.53,5.71.56,1.63,11.61-2.51,14.19-3.83,2.57-1.32-.44-6.54-1.82-8.22Z"/>
          <path class="cls-22" d="M378.52,136.25s1.65-10.41-.42-10.3l-1.51,8.28"/>
          <polygon class="cls-24" points="341.68 90.36 340.87 84.25 342.89 90.36 341.68 90.36"/>
        </g>
      </g>
    </g>
  </g>
</svg>