<?xml version="1.0" encoding="UTF-8"?>
<svg id="Layer_1" data-name="Layer 1" xmlns="http://www.w3.org/2000/svg" version="1.1" viewBox="0 0 415.6 398.4">
  <defs>
    <style>
      .cls-1 {
        fill: #1e1e1c;
      }

      .cls-1, .cls-2, .cls-3, .cls-4, .cls-5, .cls-6, .cls-7, .cls-8, .cls-9 {
        stroke-width: 0px;
      }

      .cls-2 {
        fill: #005a71;
      }

      .cls-10 {
        isolation: isolate;
      }

      .cls-11 {
        mix-blend-mode: multiply;
        opacity: .3;
      }

      .cls-3 {
        fill: #2a2f67;
      }

      .cls-4 {
        fill: #007998;
      }

      .cls-5 {
        fill: #c6e8fb;
      }

      .cls-6 {
        fill: #fff;
      }

      .cls-7 {
        fill: #1f204a;
      }

      .cls-8 {
        fill: #375ba6;
      }

      .cls-9 {
        fill: #f7c5c9;
      }
    </style>
  </defs>
  <g class="cls-10">
    <g id="OBJECTS">
      <g>
        <g>
          <g>
            <path class="cls-9" d="M265.7,223.9c1-.8.2-4.2.2-4.2,0,0,1.5,3.6,3.1,2.6,1.1-.7.8-3.7-1-6.7-1.7-2.9-5.4-12.5-5.4-12.5,0,0,2.2,3.4,3.8,4.6,1.6,1.2,4.2,3.6,5.2,2.7,1-.9-.3-2.8-1.2-4.4-.7-1.3-3.2-5.1-4.7-8.3-1.5-3.2-7.8-6-7.8-6,0,0-4.4-24.7-6.4-41.1-.6-5-5-8.7-10-8.4h0c-5.9.3-10.1,5.8-8.8,11.6,4.3,19.9,11.4,40.7,11.4,40.7,0,0,.8,7.9,2.8,14.5,2.3,7.8,6.6,17.3,9.9,17.2,1.7,0,1.8-1.4,1.1-2.5,1.2,1.2,1.9,2.2,3.3,1.5,1.2-.6,1.3-2,.6-2.9,1.6,1.3,2.8,2.4,3.8,1.7h0Z"/>
            <g>
              <path class="cls-3" d="M266.4,220.3c-1-.9-1.6-2.1-2.2-3.2-.6-1.1-1.2-2.3-1.8-3.5-.5-1.2-1-2.4-1.4-3.7s-.8-2.5-.8-3.9c.3,1.3.7,2.5,1.2,3.7s1,2.4,1.5,3.6c.5,1.2,1.1,2.4,1.6,3.6s.6,1.2.9,1.8c.3.6.6,1.2,1,1.7h0Z"/>
              <path class="cls-3" d="M263.1,202.4c-.4,0-.8,0-1.3,0-.4,0-.8,0-1.3,0-.8,0-1.7-.2-2.5-.4-.8-.2-1.6-.7-2.2-1.3-.6-.6-.9-1.5-1-2.3.2.8.6,1.5,1.2,2.1.6.5,1.3.9,2.1,1.1.8.2,1.6.4,2.4.5.8.1,1.7.1,2.5.4h0Z"/>
              <path class="cls-3" d="M262.5,222.5c-1-.9-1.6-2.1-2.2-3.2-.6-1.1-1.2-2.3-1.8-3.5-.5-1.2-1-2.4-1.4-3.7s-.8-2.5-.8-3.9c.3,1.3.7,2.5,1.2,3.7s1,2.4,1.5,3.6c.5,1.2,1.1,2.4,1.6,3.6s.6,1.2.9,1.8c.3.6.6,1.2,1,1.7Z"/>
              <path class="cls-3" d="M258.4,223.9c-1-.9-1.6-2.1-2.2-3.2-.6-1.1-1.2-2.3-1.8-3.5-.5-1.2-1-2.4-1.4-3.7s-.8-2.5-.8-3.9c.3,1.3.7,2.5,1.2,3.7s1,2.4,1.5,3.6c.5,1.2,1.1,2.4,1.6,3.6s.6,1.2.9,1.8c.3.6.6,1.2,1,1.7h0Z"/>
            </g>
          </g>
          <g>
            <path class="cls-9" d="M232.4,150.6l-6.1-45.7h25v47.9l-3.8,1.4c-5.3,1.9-11.2.5-15.1-3.6h0Z"/>
            <path class="cls-7" d="M253.8,118.9l-28.7-1.6s-9.9-35.6-2.8-40.5,16.5.5,20.8,5c13.3,13.9,10.8,37.1,10.8,37.1h0Z"/>
          </g>
        </g>
        <g>
          <g>
            <g>
              <path class="cls-3" d="M223.1,363s19.3,8.2,22.7,10.5c3.4,2.4,5.4,8.7,5.4,8.7,0,0-4.4,4.6-7.2,4.6-6.1.1-12.9-1.4-21.4-2.8-20.9-3.5-25.3-9.4-25.3-9.4,0,0,.4-4.7,1.1-6.7.7-2,3.5-6.5,3.5-6.5l21.3,1.6h0Z"/>
              <polygon class="cls-6" points="233.3 377.9 234.7 368.5 225.8 374.4 228 365.7 221 371.2 220.8 371 228.6 364.8 226.4 373.6 235.1 367.8 233.8 376.9 240.1 370.5 240.4 370.8 233.3 377.9"/>
              <path class="cls-5" d="M197.2,374.6l-.6,3.7s10.5,6.8,24,9.1c13.5,2.3,21.8,1.9,24.8,1.1,4.9-1.3,5.9-3.5,5.9-3.5l-.3-3.6s0,4.7-16.7,3.8c-16.2-.9-24.2-3.9-27.2-5-3-1.2-9.9-5.6-9.9-5.6h0Z"/>
            </g>
            <g>
              <path class="cls-9" d="M202.9,352.5l-.9,11.4s5,4,9.8,4.2c4.8.2,11.4-2.1,11.4-2.1l-.4-11.3s-19.9-2.2-19.9-2.2Z"/>
              <path class="cls-2" d="M229.4,261.3c-13.7-3-21.1,5.4-21.1,5.4l-7.5,84.1s3.5,7.9,16.4,9.9c5,.8,10.1-2.1,10.1-2.1l14-77.4s1.8-16.8-12-19.8h0Z"/>
              <path class="cls-6" d="M205.6,350.4h-.3s.2-2.1.2-2.1h.3s-.2,2.1-.2,2.1ZM206.1,346.3h-.3s.2-2.1.2-2.1h.3s-.2,2.1-.2,2.1ZM206.5,342.1h-.3s.2-2.1.2-2.1h.3s-.2,2.1-.2,2.1ZM207,337.9h-.3s.2-2.1.2-2.1h.3s-.2,2.1-.2,2.1ZM207.5,333.7h-.3s.2-2.1.2-2.1h.3s-.2,2.1-.2,2.1ZM208,329.5h-.3s.2-2.1.2-2.1h.3s-.2,2.1-.2,2.1ZM208.5,325.4h-.3s.2-2.1.2-2.1h.3s-.2,2.1-.2,2.1ZM209,321.2h-.3s.2-2.1.2-2.1h.3s-.2,2.1-.2,2.1ZM209.4,317h-.3s.2-2.1.2-2.1h.3s-.2,2.1-.2,2.1ZM209.9,312.8h-.3s.2-2.1.2-2.1h.3s-.2,2.1-.2,2.1ZM210.4,308.6h-.3s.2-2.1.2-2.1h.3s-.2,2.1-.2,2.1ZM210.9,304.4h-.3s.2-2.1.2-2.1h.3s-.2,2.1-.2,2.1ZM211.4,300.3h-.3s.2-2.1.2-2.1h.3s-.2,2.1-.2,2.1ZM211.8,296.1h-.3s.2-2.1.2-2.1h.3s-.2,2.1-.2,2.1ZM212.3,291.9h-.3s.2-2.1.2-2.1h.3s-.2,2.1-.2,2.1ZM212.8,287.7h-.3s.2-2.1.2-2.1h.3s-.2,2.1-.2,2.1ZM213.3,283.5h-.3s.2-2.1.2-2.1h.3s-.2,2.1-.2,2.1ZM213.8,279.4h-.3s.2-2.1.2-2.1h.3s-.2,2.1-.2,2.1Z"/>
            </g>
            <g>
              <path class="cls-2" d="M209.3,210.8c-3.4,13.1-1,55.7-1,55.7v.2c3.2,6.9,9.8,11.9,17.3,14,5.4,1.2,10.7,1.5,15.7.4,0,0,15.3-63.9,5.7-80.8-8.5-14.9-34.3-2.7-37.7,10.4h0Z"/>
              <path class="cls-6" d="M213.7,269.5v-.4s.3,0,.3,0v.4s-.3,0-.3,0ZM213.5,267l-.2-2.1h.3s.2,2.1.2,2.1h-.3ZM213.2,262.8l-.2-2.1h.3s.2,2.1.2,2.1h-.3ZM212.9,258.6l-.2-2.1h.3s.2,2.1.2,2.1h-.3ZM212.6,254.4l-.2-2.1h.3s.2,2.1.2,2.1h-.3ZM212.3,250.2l-.2-2.1h.3s.2,2.1.2,2.1h-.3ZM211.9,246l-.2-2.1h.3s.2,2.1.2,2.1h-.3ZM211.6,241.8l-.2-2.1h.3s.2,2.1.2,2.1h-.3ZM211.3,237.6l-.2-2.1h.3s.2,2.1.2,2.1h-.3ZM211,233.4l-.2-2.1h.3s.2,2.1.2,2.1h-.3ZM210.7,229.2l-.2-2.1h.3s.2,2.1.2,2.1h-.3ZM210.4,225l-.2-2.1h.3s.2,2.1.2,2.1h-.3Z"/>
            </g>
          </g>
          <g>
            <path class="cls-4" d="M232.5,186c-21.5-6.1-60-4.1-63.7,11.4-.7,3.2-.4,11.4.5,21.3,7.8,18.1,34.3,14.3,51,14.2,2.6-1.7,10.3-6.9,15.5-13,6.3-7.4,10-19.5,10-19.5,0,0-1.4-11.1-13.3-14.5h0Z"/>
            <path class="cls-6" d="M222.3,222.6l-.2-.2c2.3-3,4.6-6.3,6-10,1.5-4,1.8-8,.7-11.4h.3c1.1,3.3.8,7.4-.7,11.5-1.4,3.8-3.7,7.1-6,10.1Z"/>
            <path class="cls-6" d="M187.7,227c-5.3,0-9.6-3.4-9.7-3.5l.2-.2c0,0,6.6,5.3,13.4,2.7,6.9-2.6,8.8-10.8,8.8-10.8h.3c0,.2-2,8.5-9,11.1-1.4.5-2.8.7-4.1.7h0Z"/>
            <g class="cls-11">
              <path class="cls-2" d="M168.5,204.3s15.6,2.3,26.7,2.5c11.1.1,51.7-8.3,51.7-8.3l-2.9,7.3s-20.8,9.2-51,8.9c-14-.2-23.3-1.9-23.3-1.9,0,0-1.2-8.5-1.2-8.5Z"/>
            </g>
          </g>
          <g>
            <path class="cls-3" d="M190.9,372.2s19.3,8.2,22.7,10.5c3.4,2.4,5.4,8.7,5.4,8.7,0,0-4.4,4.6-7.2,4.6-6.1.1-12.9-1.4-21.4-2.8-20.9-3.5-25.4-9.4-25.4-9.4,0,0,.4-4.7,1.1-6.7s3.5-6.5,3.5-6.5l21.3,1.6h0Z"/>
            <polygon class="cls-6" points="201 387.1 202.4 377.8 193.6 383.6 195.8 375 188.8 380.5 188.6 380.2 196.4 374 194.2 382.8 202.9 377 201.6 386.1 207.9 379.7 208.2 380 201 387.1"/>
            <path class="cls-5" d="M165,383.8l-.6,3.7s10.5,6.8,24,9.1c13.5,2.3,21.8,1.9,24.8,1.1,4.9-1.3,5.9-3.5,5.9-3.5l-.3-3.6s0,4.7-16.7,3.8c-16.2-.9-24.2-3.9-27.2-5-3-1.2-9.9-5.6-9.9-5.6h0Z"/>
          </g>
          <g>
            <path class="cls-4" d="M169.3,218.7c2,23.6,6.8,57,6.8,57v.2c3.2,6.9,9.8,11.9,17.3,14,5.4,1.2,10.7,1.5,15.7.4l10.3-56.8s.3-.2.9-.6c-16.8,0-43.2,3.9-51-14.2h0Z"/>
            <path class="cls-6" d="M181.5,278.7v-.4s.3,0,.3,0v.4s-.3,0-.3,0ZM181.3,276.2l-.2-2.1h.3s.2,2.1.2,2.1h-.3ZM181,272l-.2-2.1h.3s.2,2.1.2,2.1h-.3ZM180.7,267.8l-.2-2.1h.3s.2,2.1.2,2.1h-.3ZM180.3,263.6l-.2-2.1h.3s.2,2.1.2,2.1h-.3ZM180,259.4l-.2-2.1h.3s.2,2.1.2,2.1h-.3ZM179.7,255.2l-.2-2.1h.3s.2,2.1.2,2.1h-.3ZM179.4,251l-.2-2.1h.3s.2,2.1.2,2.1h-.3ZM179.1,246.8l-.2-2.1h.3s.2,2.1.2,2.1h-.3ZM178.8,242.6l-.2-2.1h.3s.2,2.1.2,2.1h-.3ZM178.5,238.4l-.2-2.1h.3s.2,2.1.2,2.1h-.3ZM178.1,234.2l-.2-2.1h.3s.2,2.1.2,2.1h-.3Z"/>
          </g>
          <g>
            <path class="cls-9" d="M170.6,361.7l-.9,11.4s5,4,9.9,4.2c4.8.2,11.4-2.1,11.4-2.1l-.4-11.3-19.9-2.2Z"/>
            <path class="cls-4" d="M197.2,270.5c-13.7-3-21.1,5.4-21.1,5.4l-7.5,84.1s3.5,7.9,16.4,9.9c5,.8,10.1-2.1,10.1-2.1l14-77.4s1.8-16.8-12-19.8h0Z"/>
            <path class="cls-6" d="M173.4,359.6h-.3s.2-2.1.2-2.1h.3s-.2,2.1-.2,2.1ZM173.8,355.5h-.3s.2-2.1.2-2.1h.3s-.2,2.1-.2,2.1ZM174.3,351.3h-.3s.2-2.1.2-2.1h.3s-.2,2.1-.2,2.1ZM174.8,347.1h-.3s.2-2.1.2-2.1h.3s-.2,2.1-.2,2.1ZM175.3,342.9h-.3s.2-2.1.2-2.1h.3s-.2,2.1-.2,2.1ZM175.8,338.7h-.3s.2-2.1.2-2.1h.3s-.2,2.1-.2,2.1ZM176.2,334.6h-.3s.2-2.1.2-2.1h.3s-.2,2.1-.2,2.1ZM176.7,330.4h-.3s.2-2.1.2-2.1h.3s-.2,2.1-.2,2.1ZM177.2,326.2h-.3s.2-2.1.2-2.1h.3s-.2,2.1-.2,2.1ZM177.7,322h-.3s.2-2.1.2-2.1h.3s-.2,2.1-.2,2.1ZM178.2,317.8h-.3s.2-2.1.2-2.1h.3s-.2,2.1-.2,2.1ZM178.7,313.6h-.3s.2-2.1.2-2.1h.3s-.2,2.1-.2,2.1ZM179.1,309.5h-.3s.2-2.1.2-2.1h.3s-.2,2.1-.2,2.1ZM179.6,305.3h-.3s.2-2.1.2-2.1h.3s-.2,2.1-.2,2.1ZM180.1,301.1h-.3s.2-2.1.2-2.1h.3s-.2,2.1-.2,2.1ZM180.6,296.9h-.3s.2-2.1.2-2.1h.3s-.2,2.1-.2,2.1ZM181.1,292.7h-.3s.2-2.1.2-2.1h.3s-.2,2.1-.2,2.1ZM181.5,288.6h-.3s.2-2.1.2-2.1h.3s-.2,2.1-.2,2.1Z"/>
          </g>
        </g>
        <g>
          <path class="cls-3" d="M198.4,65.9s-29.8,5.3-36,17c-6.2,11.6,2.3,121.4,2.3,121.4,0,0,29.8,4.8,46.5,3.5,22.8-1.7,36.6-8.2,36.6-8.2,0,0-.4-90.6-3-100.3-8.2-30.1-29.4-30.4-29.4-30.4l-17-3h0Z"/>
          <path class="cls-9" d="M215,60.9l-1.3,13.4s1.9,5.4-1.3,6.6c-7.5,3-23-12.2-23-12.2l2.8-16.6,22.8,8.7h0Z"/>
        </g>
        <g>
          <path class="cls-9" d="M226.8,28.6s.2,27.8-4.3,31.9c-4.2,3.8-23.5,4.3-28.3-2.7s-1-32.6.2-35.2,18.5-5.8,24.4-5.2c5.8.6,8.1,11.2,8.1,11.2Z"/>
          <path class="cls-3" d="M202.7,34.6c2.4-.7,4.8-1,7.3-.8.5,0,.9-.3.9-.8h0c0-.5-.3-1-.8-1-2.7-.1-5.3.2-7.9.9-.5.1-.8.7-.6,1.2h0c.2.5.6.7,1.1.6h0Z"/>
          <path class="cls-3" d="M220.6,33.8c1.6-.6,3.3-.8,5.1-.6.3,0,.6-.3.6-.8h0c0-.5-.3-1-.6-1-1.9-.2-3.7,0-5.5.6-.3.1-.5.6-.4,1.1h0c.1.5.5.8.8.6h0Z"/>
          <path class="cls-1" d="M218,43.9c-.1,0-.2,0-.3-.2,0-.2,0-.3.2-.3.8-.2,1.9-.5,2.1-.9.1-.3-.6-1.8-1.6-3.3,0-.1,0-.3,0-.4.1,0,.3,0,.4,0,.6.9,2,3.2,1.6,3.9-.4.7-2.2,1.1-2.5,1.2h0Z"/>
          <path class="cls-1" d="M216.8,55.2c-.3,0-.6,0-.9,0-3-.6-4.6-2.6-4.7-2.7,0-.1,0-.3,0-.4.1,0,.3,0,.4,0,0,0,1.6,1.9,4.3,2.5,2.3.4,5-1.2,5-1.2.1,0,.3,0,.4,0s0,.3,0,.4c0,0-2.3,1.3-4.5,1.4Z"/>
          <g>
            <path class="cls-6" d="M202.3,38.5c0,1.2,2,2.2,4.4,2.1s4.3-1.2,4.3-2.4c0-1.2-2-2.2-4.4-2.1s-4.3,1.2-4.3,2.4Z"/>
            <path class="cls-8" d="M207.3,39.1c.4.8,1.4,1.2,2.4.8.9-.4,1.4-1.5,1-2.3-.4-.8-1.4-1.2-2.4-.8-.9.4-1.4,1.5-1,2.3Z"/>
          </g>
          <g>
            <path class="cls-6" d="M219.2,37.9c0,1.2,1.2,2.1,3.6,2,2.4,0,4.3-1.2,4.3-2.4,0-1.2-2-2.2-4.4-2.1-2.4,0-3.5,1.2-3.5,2.5h0Z"/>
            <path class="cls-8" d="M223.5,38.5c.4.8,1.4,1.2,2.4.8s1.4-1.5,1-2.3-1.4-1.2-2.4-.8-1.4,1.5-1,2.3Z"/>
          </g>
          <path class="cls-3" d="M226,45s-1.7.3-3.2.7c-1.4.4-2,.6-3.1.1-1-.5-2.9-.3-2.9-.3,0,0-3.7-.6-4.6.4s-2.6,1-3.9.7c-1.4-.2-3.3-.2-4.2.1-.9.3-5.4-1-5.9-1.8s-1.3-6.7-1.3-6.7l-1.4,1.1-5.3-1.1s.8,13,1.5,13.8.4,2.5,1.5,4.9,3,3.7,4.9,4.6c1.9.9,0,2.4,3.4,3,3.3.6,4.7-1.7,6.3-.5,1.6,1.2,4.4.3,6.9.1,2.5-.1,2-.2,5.1-.7,3.1-.5,4.8-2.1,5.4-4.1.6-2,.6-3.7.8-6,.1-2.3,0-2.6,0-4.2s0-4.3,0-4.3ZM222.1,58.1c-.8,1.3-2.4.4-4.7.7-2.3.3-5,.4-6.4,0s-3-2.1-3.1-2.5c-.2-.4,0-4,.9-4.7.8-.7,1.8-1.5,3.5-1.5s2-1,3.3-1.6,4.8,1,4.8,1c0,0,1.4.7,1.8,1.3.3.6.6.9,1.2,2.8.6,2-.4,3.1-1.2,4.4h0Z"/>
          <path class="cls-3" d="M197,39.8s-2.7-14.5.1-16.1c2.8-1.6,5.1-.8,5.1-.8,0,0,12.9.3,15.8-.2,2.8-.5,6.1-1.1,6.1-1.1,0,0,3.4-6.6,2.2-10.1-1.2-3.6-3.6-6.3-5.2-7.4-1.6-1-6.1-1.4-6.1-1.4l2,2.5s-6.5-1.9-9.3-2c-2.7-.1-5.6,1.5-5.6,1.5l1.8.5s-4.4-.4-7.7.3-4.7,3-4.7,3h2.2c0,.1-3.9,1.9-5.9,3.7s-2.2,3.7-2.2,3.7l2.2-.6s-2.3,2.3-3.6,4.4c-1.3,2.1-.9,3.8-.9,3.8l2.1-1,2.8,18.9,8.6-1.6h0Z"/>
          <path class="cls-9" d="M186.4,41.8c1.2,2.8,4,4.3,6.1,3.3s2.8-4,1.6-6.8-4-4.3-6.1-3.3-2.8,4-1.6,6.8Z"/>
          <path class="cls-1" d="M188,40.9c-.2-.7-.3-1.5,0-2.2.1-.4.5-.7.8-.9.4-.2.8-.2,1.2,0,.8.3,1.3.9,1.6,1.6.4.6.7,1.3.8,2-.4-.6-.7-1.3-1.2-1.8-.4-.6-.9-1.1-1.5-1.3-.6-.2-1.3,0-1.6.6-.3.6-.3,1.3-.3,2.1Z"/>
        </g>
        <g>
          <g>
            <path class="cls-9" d="M185.9,243.4c1.1-.9-1.8-5.1-1.8-5.1,0,0,3.4,3.2,5.2,2,1.2-.8-.9-3.3-2.8-6.6s-6-14-6-14c0,0,3.9,2.2,5.6,3.6,1.8,1.3,5.6,3,6.7,2s.5-2.9-1-3.7c-1.5-.8-5.2-4-6.9-7.6s-9.6-7.2-9.6-7.2c0,0-4.9-27.6-7.1-45.9-.7-5.6-5.6-9.7-11.2-9.4h0c-6.6.4-11.2,6.5-9.8,12.9,4.8,22.2,12.8,45.6,12.8,45.6,0,0,.9,8.8,3.1,16.2,2.6,8.7,8.6,18.5,12.3,18.5,1.9,0,1.5-1.4.7-2.6,1.4,1.4,3.3,2.8,4.8,2,1.3-.7.9-1.9,0-2.9,1.7,1.5,4,3.1,5.2,2.2h0Z"/>
            <g>
              <path class="cls-3" d="M185.6,239.9c-1.2-.9-1.9-2.2-2.7-3.4-.8-1.2-1.5-2.5-2.2-3.8-.7-1.3-1.3-2.6-1.9-4-.5-1.4-1-2.8-1.2-4.2.4,1.4,1,2.8,1.6,4.1.6,1.3,1.3,2.6,2,3.9.7,1.3,1.4,2.6,2.1,3.9.4.6.7,1.3,1.1,1.9.4.6.7,1.3,1.3,1.8h0Z"/>
              <path class="cls-3" d="M182,242.6c-1.2-.9-1.9-2.2-2.7-3.4-.8-1.2-1.5-2.5-2.2-3.8-.7-1.3-1.3-2.6-1.9-4-.5-1.4-1-2.8-1.2-4.2.4,1.4,1,2.8,1.6,4.1.6,1.3,1.3,2.6,2,3.9.7,1.3,1.4,2.6,2.1,3.9.4.6.7,1.3,1.1,1.9.4.6.7,1.3,1.3,1.8h0Z"/>
              <path class="cls-3" d="M177.2,243.5c-1.2-.9-1.9-2.2-2.7-3.4-.8-1.2-1.5-2.5-2.2-3.8-.7-1.3-1.3-2.6-1.9-4-.5-1.4-1-2.8-1.2-4.2.4,1.4,1,2.8,1.6,4.1.6,1.3,1.3,2.6,2,3.9.7,1.3,1.4,2.6,2.1,3.9s.7,1.3,1.1,1.9c.4.6.7,1.3,1.3,1.8h0Z"/>
            </g>
          </g>
          <g>
            <path class="cls-9" d="M167.8,159.6l6.8-51.1h-28v53.6l4.2,1.5c5.9,2.1,12.6.6,16.9-4h0Z"/>
            <path class="cls-3" d="M143.9,124.1l32.1-1.8s11-39.8,3.2-45.3c-7.9-5.4-18.4.6-23.2,5.6-14.8,15.6-12,41.5-12,41.5Z"/>
            <path class="cls-6" d="M164.5,122.9c1.9-.2,3.8-.4,5.7-.6,1.9-.2,3.8-.3,5.7-.5l-.4.3c.7-3,1.3-6,2.1-8.9.8-3,1.5-5.9,2.4-8.9-.5,3-1,6-1.7,9-.6,3-1.3,6-2,9v.3h-.4c-1.9,0-3.8.2-5.7.2-1.9,0-3.8,0-5.8,0h0Z"/>
          </g>
        </g>
      </g>
    </g>
  </g>
</svg>